<svg width="112" height="36" viewBox="0 0 112 36" fill="none" xmlns="http://www.w3.org/2000/svg">
<g clip-path="url(#clip0_10_52)">
<g clip-path="url(#clip1_10_52)">
<g clip-path="url(#clip2_10_52)">
<g clip-path="url(#clip3_10_52)">
<g clip-path="url(#clip4_10_52)">
<g clip-path="url(#clip5_10_52)">
<g clip-path="url(#clip6_10_52)">
<path d="M0.554565 10.9315H2.02382L2.11197 11.8056C3.09148 11.1063 3.84569 10.7566 4.37462 10.7566C5.66757 10.7566 6.55892 11.1743 7.04867 12.0096C8.14571 11.1743 9.10562 10.7566 9.9284 10.7566C11.2018 10.7566 12.0735 11.1452 12.5437 11.9222C13.0138 12.6992 13.2489 13.8939 13.2489 15.5063V24.7725H11.6915V15.5063C11.6915 14.399 11.574 13.5773 11.3389 13.0411C11.1038 12.5089 10.6532 12.2427 9.98717 12.2427C9.32111 12.2427 8.49833 12.5535 7.51883 13.1752C7.63637 13.8357 7.69514 14.6127 7.69514 15.5063V20.3434H6.13773V15.5063C6.13773 14.399 6.02019 13.5831 5.78511 13.0586C5.53044 12.5147 5.07007 12.2427 4.40401 12.2427C3.73795 12.2427 2.97394 12.5535 2.11197 13.1752V24.7725H0.554565V10.9315ZM20.889 24.9765L15.776 10.9315H17.5391L21.6824 22.7036H21.9175L25.62 10.9315H27.3831L21.9763 27.1327C21.4669 28.6674 20.9321 29.6484 20.3719 30.0758C19.8155 30.5031 18.6852 30.7363 16.9808 30.7751V29.289C18.0779 29.2696 18.8125 29.1142 19.1847 28.8228C19.5569 28.5314 19.8997 27.9195 20.2132 26.987L20.889 24.9765ZM37.1684 25.0639C34.9351 25.0639 33.2699 24.2868 32.1729 22.7328C31.0759 21.1787 30.5273 18.6824 30.5273 15.244C30.5273 11.8056 31.0563 9.30358 32.1141 7.73785C33.172 6.176 34.8646 5.39507 37.1919 5.39507C38.7238 5.39507 40.2636 5.6379 41.8112 6.12355V9.96989H40.195V7.37652C39.3331 7.06571 38.332 6.9103 37.1919 6.9103C35.4327 6.9103 34.1711 7.56107 33.4071 8.86261C32.6431 10.1642 32.2611 12.2719 32.2611 15.1858C32.2611 18.0997 32.6724 20.2171 33.4952 21.5381C34.318 22.859 35.5502 23.5195 37.1919 23.5195C38.43 23.5195 39.8992 23.2573 41.5996 22.7328L41.9875 24.248C40.3811 24.7919 38.7747 25.0639 37.1684 25.0639ZM50.0038 23.5195C50.7286 23.5195 51.5181 23.2903 52.3722 22.8318C53.2224 22.3773 53.8434 21.9557 54.2352 21.5672V18.0997C52.9423 18.0025 51.7081 17.954 50.5327 17.954C49.3573 17.954 48.4757 18.2007 47.888 18.6941C47.3003 19.1914 47.0065 19.8577 47.0065 20.693C47.0065 22.5774 48.0056 23.5195 50.0038 23.5195ZM49.9744 25.0347C48.5443 25.0347 47.4179 24.6695 46.5951 23.9391C45.7723 23.2126 45.3609 22.1791 45.3609 20.8387C45.3609 19.4983 45.8115 18.459 46.7126 17.7209C47.6138 16.9632 48.8088 16.5844 50.2976 16.5844C51.7865 16.5844 53.099 16.6427 54.2352 16.7593C54.2352 15.0304 54.0197 13.8493 53.5887 13.216C53.1578 12.5866 52.286 12.2719 50.9735 12.2719C49.6609 12.2719 48.1133 12.5827 46.3306 13.2043L45.8899 11.7474C47.7117 11.0869 49.3573 10.7566 50.8265 10.7566C52.766 10.7566 54.0785 11.184 54.7641 12.0388C55.4498 12.8935 55.7926 14.3893 55.7926 16.5262V22.6453L56.0277 24.8599L54.5291 25.0056L54.2352 23.2573C53.7846 23.6458 53.148 24.0382 52.3252 24.4345C51.5024 24.8346 50.7188 25.0347 49.9744 25.0347ZM62.992 19.4692V12.5924H60.5236V11.1354H62.992V7.78447L64.5494 7.49308V11.1354H70.1325V12.5924H64.5494V19.4109C64.5494 20.9261 64.7022 21.9946 65.0078 22.6162C65.3095 23.2378 65.9305 23.5486 66.8708 23.5486C67.8111 23.5486 68.8494 23.3641 69.9856 22.995L70.3382 24.452C69.202 24.8599 68.1441 25.0639 67.1646 25.0639C66.1851 25.0639 65.4172 24.9376 64.8609 24.6851C64.3006 24.4325 63.8892 24.0285 63.6267 23.4729C63.3603 22.9212 63.1879 22.354 63.1095 21.7712C63.0311 21.1884 62.992 20.4211 62.992 19.4692Z" fill="white"/>
</g>
</g>
</g>
</g>
<g clip-path="url(#clip7_10_52)">
<path d="M86.0514 0.547485H76.3832V35.6227H86.0514V0.547485Z" fill="white"/>
<path d="M97.8418 0.547485H88.1736V35.6227H97.8418V0.547485Z" fill="white" fill-opacity="0.75"/>
<path d="M109.632 0.547485H99.9642V35.6227H109.632V0.547485Z" fill="white" fill-opacity="0.5"/>
</g>
</g>
</g>
</g>
<defs>
<clipPath id="clip0_10_52">
<rect width="111.402" height="35.1291" fill="white" transform="translate(0.452026 0.520546)"/>
</clipPath>
<clipPath id="clip1_10_52">
<rect width="111.203" height="35.0752" fill="white" transform="translate(0.551392 0.547485)"/>
</clipPath>
<clipPath id="clip2_10_52">
<rect width="111.203" height="35.0752" fill="white" transform="translate(0.551392 0.547485)"/>
</clipPath>
<clipPath id="clip3_10_52">
<rect width="69.7896" height="25.38" fill="white" transform="translate(0.551392 5.39507)"/>
</clipPath>
<clipPath id="clip4_10_52">
<rect width="69.7896" height="25.38" fill="white" transform="translate(0.551392 5.39507)"/>
</clipPath>
<clipPath id="clip5_10_52">
<rect width="69.7896" height="25.38" fill="white" transform="translate(0.551392 5.39507)"/>
</clipPath>
<clipPath id="clip6_10_52">
<rect width="69.7896" height="25.38" fill="white" transform="translate(0.551392 5.39507)"/>
</clipPath>
<clipPath id="clip7_10_52">
<rect width="35.3715" height="35.0752" fill="white" transform="translate(76.3832 0.547485)"/>
</clipPath>
</defs>
</svg>
