<svg width="112" height="36" viewBox="0 0 112 36" fill="none" xmlns="http://www.w3.org/2000/svg">
<g clip-path="url(#clip0_10_53)">
<g clip-path="url(#clip1_10_53)">
<g clip-path="url(#clip2_10_53)">
<g clip-path="url(#clip3_10_53)">
<g clip-path="url(#clip4_10_53)">
<g clip-path="url(#clip5_10_53)">
<g clip-path="url(#clip6_10_53)">
<path d="M0.554443 10.4383H2.0237L2.11185 11.3124C3.09135 10.6131 3.84557 10.2634 4.3745 10.2634C5.66745 10.2634 6.55879 10.6811 7.04854 11.5164C8.14559 10.6811 9.1055 10.2634 9.92828 10.2634C11.2016 10.2634 12.0734 10.652 12.5436 11.429C13.0137 12.206 13.2488 13.4007 13.2488 15.0131V24.2793H11.6914V15.0131C11.6914 13.9058 11.5738 13.0841 11.3388 12.5479C11.1037 12.0157 10.6531 11.7495 9.98705 11.7495C9.32099 11.7495 8.49821 12.0603 7.51871 12.682C7.63625 13.3425 7.69502 14.1195 7.69502 15.0131V19.8502H6.13761V15.0131C6.13761 13.9058 6.02007 13.0899 5.78499 12.5654C5.53032 12.0215 5.06995 11.7495 4.40389 11.7495C3.73783 11.7495 2.97381 12.0603 2.11185 12.682V24.2793H0.554443V10.4383ZM20.8889 24.4833L15.7759 10.4383H17.539L21.6823 22.2104H21.9174L25.6199 10.4383H27.383L21.9762 26.6395C21.4668 28.1742 20.932 29.1552 20.3717 29.5826C19.8154 30.0099 18.685 30.2431 16.9807 30.2819V28.7958C18.0777 28.7764 18.8124 28.621 19.1846 28.3296C19.5568 28.0382 19.8996 27.4263 20.2131 26.4938L20.8889 24.4833ZM37.1682 24.5707C34.935 24.5707 33.2698 23.7936 32.1728 22.2396C31.0757 20.6855 30.5272 18.1892 30.5272 14.7508C30.5272 11.3124 31.0561 8.81037 32.114 7.24464C33.1719 5.68279 34.8645 4.90187 37.1917 4.90187C38.7237 4.90187 40.2635 5.14469 41.8111 5.63034V9.47669H40.1949V6.88332C39.3329 6.5725 38.3319 6.41709 37.1917 6.41709C35.4326 6.41709 34.171 7.06786 33.407 8.3694C32.6429 9.67095 32.2609 11.7787 32.2609 14.6926C32.2609 17.6065 32.6723 19.7239 33.4951 21.0449C34.3179 22.3658 35.5501 23.0263 37.1917 23.0263C38.4298 23.0263 39.8991 22.7641 41.5995 22.2396L41.9874 23.7548C40.381 24.2987 38.7746 24.5707 37.1682 24.5707ZM50.0036 23.0263C50.7285 23.0263 51.518 22.7971 52.3721 22.3386C53.2223 21.8841 53.8433 21.4625 54.2351 21.074V17.6065C52.9421 17.5093 51.708 17.4608 50.5326 17.4608C49.3572 17.4608 48.4756 17.7075 47.8879 18.2009C47.3002 18.6982 47.0064 19.3645 47.0064 20.1998C47.0064 22.0841 48.0055 23.0263 50.0036 23.0263ZM49.9743 24.5415C48.5442 24.5415 47.4178 24.1763 46.595 23.4459C45.7722 22.7194 45.3608 21.6859 45.3608 20.3455C45.3608 19.0051 45.8114 17.9658 46.7125 17.2276C47.6137 16.47 48.8087 16.0912 50.2975 16.0912C51.7863 16.0912 53.0989 16.1495 54.2351 16.2661C54.2351 14.5372 54.0196 13.3561 53.5886 12.7228C53.1576 12.0934 52.2859 11.7787 50.9734 11.7787C49.6608 11.7787 48.1132 12.0895 46.3305 12.7111L45.8897 11.2542C47.7116 10.5937 49.3572 10.2634 50.8264 10.2634C52.7658 10.2634 54.0784 10.6908 54.764 11.5456C55.4497 12.4003 55.7925 13.8961 55.7925 16.033V22.1521L56.0276 24.3667L54.5289 24.5124L54.2351 22.7641C53.7845 23.1526 53.1478 23.545 52.3251 23.9413C51.5023 24.3414 50.7187 24.5415 49.9743 24.5415ZM62.9918 18.976V12.0992H60.5235V10.6422H62.9918V7.29126L64.5493 6.99987V10.6422H70.1324V12.0992H64.5493V18.9177C64.5493 20.4329 64.7021 21.5014 65.0077 22.123C65.3093 22.7446 65.9304 23.0554 66.8707 23.0554C67.811 23.0554 68.8493 22.8709 69.9855 22.5018L70.3381 23.9588C69.2019 24.3667 68.144 24.5707 67.1645 24.5707C66.185 24.5707 65.4171 24.4444 64.8607 24.1919C64.3005 23.9393 63.8891 23.5353 63.6266 22.9797C63.3601 22.428 63.1877 21.8607 63.1094 21.278C63.031 20.6952 62.9918 19.9279 62.9918 18.976Z" fill="black"/>
</g>
</g>
</g>
</g>
<g clip-path="url(#clip7_10_53)">
<path d="M86.0514 0.0542793H76.3832V35.1295H86.0514V0.0542793Z" fill="black"/>
<path d="M97.8418 0.0542793H88.1736V35.1295H97.8418V0.0542793Z" fill="black" fill-opacity="0.75"/>
<path d="M109.632 0.0542793H99.9642V35.1295H109.632V0.0542793Z" fill="black" fill-opacity="0.5"/>
</g>
</g>
</g>
</g>
<defs>
<clipPath id="clip0_10_53">
<rect width="111.402" height="35.1291" fill="white" transform="translate(0.452026 0.0273438)"/>
</clipPath>
<clipPath id="clip1_10_53">
<rect width="111.203" height="35.0752" fill="white" transform="translate(0.551392 0.0542793)"/>
</clipPath>
<clipPath id="clip2_10_53">
<rect width="111.203" height="35.0752" fill="white" transform="translate(0.551392 0.0542793)"/>
</clipPath>
<clipPath id="clip3_10_53">
<rect width="69.7896" height="25.38" fill="white" transform="translate(0.551392 4.90187)"/>
</clipPath>
<clipPath id="clip4_10_53">
<rect width="69.7896" height="25.38" fill="white" transform="translate(0.551392 4.90187)"/>
</clipPath>
<clipPath id="clip5_10_53">
<rect width="69.7896" height="25.38" fill="white" transform="translate(0.551392 4.90187)"/>
</clipPath>
<clipPath id="clip6_10_53">
<rect width="69.7896" height="25.38" fill="white" transform="translate(0.551392 4.90187)"/>
</clipPath>
<clipPath id="clip7_10_53">
<rect width="35.3715" height="35.0752" fill="white" transform="translate(76.3832 0.0542793)"/>
</clipPath>
</defs>
</svg>
