<svg width="56" height="55" viewBox="0 0 56 55" fill="none" xmlns="http://www.w3.org/2000/svg">
<g clip-path="url(#clip0_56_178)">
<path d="M23.3801 11.5959C24.3098 9.82544 25.5864 8.26026 27.1339 6.99369C28.6814 5.72713 30.468 4.78512 32.3874 4.22382C34.3067 3.66253 36.3194 3.49343 38.3055 3.72663C40.2916 3.95982 42.2103 4.59053 43.9475 5.58114C45.6846 6.57176 47.2045 7.902 48.4165 9.49257C49.6285 11.0831 50.5078 12.9015 51.0021 14.8391C51.4964 16.7768 51.5954 18.7942 51.2933 20.771C50.9912 22.7477 50.2942 24.6435 49.2439 26.3451C51.082 28.0762 52.3579 30.3194 52.9062 32.7841C53.4544 35.2488 53.2498 37.8214 52.3188 40.1684C51.3878 42.5154 49.7733 44.5288 47.6846 45.9474C45.5959 47.3661 43.1292 48.1248 40.6043 48.1251L21.1251 48.1228C18.6236 48.1209 16.1489 47.6071 13.8534 46.613C11.5578 45.6189 9.49002 44.1655 7.77722 42.3423C6.06441 40.5191 4.74284 38.3647 3.89384 36.0117C3.04483 33.6586 2.68637 31.1567 2.8405 28.6599C2.99463 26.1631 3.65809 23.7243 4.79006 21.4935C5.92203 19.2627 7.49855 17.2872 9.42259 15.6885C11.3466 14.0899 13.5775 12.9018 15.9779 12.1976C18.3782 11.4934 20.8973 11.2879 23.3801 11.5936V11.5959ZM28.1262 12.8426C30.4152 13.7914 32.4889 15.193 34.2228 16.9631C35.9567 18.7332 37.3151 20.8355 38.2164 23.1436C40.6177 22.6834 43.1008 22.9277 45.3664 23.8472C46.4287 21.5802 46.63 19.0041 45.9329 16.5996C45.2357 14.195 43.6876 12.1262 41.5774 10.7791C39.4671 9.43193 36.9389 8.89844 34.4643 9.27813C31.9897 9.65781 29.7377 10.9248 28.1284 12.8426H28.1262ZM40.6043 43.5418C41.9267 43.5416 43.2285 43.2144 44.3938 42.5895C45.5592 41.9645 46.552 41.0611 47.2838 39.9597C48.0156 38.8582 48.4637 37.593 48.5883 36.2765C48.7129 34.96 48.51 33.6331 47.9978 32.414C47.4855 31.1948 46.6798 30.1212 45.6523 29.2888C44.6248 28.4563 43.4075 27.8909 42.1086 27.6427C40.8097 27.3945 39.4696 27.4712 38.2076 27.8662C36.9456 28.2611 35.8008 28.962 34.8751 29.9064V29.7918C34.8751 27.0723 34.0687 24.4139 32.5578 22.1527C31.0469 19.8915 28.8995 18.1291 26.387 17.0884C23.8745 16.0477 21.1099 15.7754 18.4426 16.306C15.7754 16.8365 13.3254 18.1461 11.4024 20.0691C9.47942 21.992 8.16986 24.442 7.63931 27.1093C7.10876 29.7765 7.38106 32.5412 8.42176 35.0537C9.46247 37.5661 11.2248 39.7136 13.486 41.2245C15.7472 42.7353 18.4056 43.5418 21.1251 43.5418H40.6043Z" fill="#4747EB"/>
</g>
<defs>
<clipPath id="clip0_56_178">
<rect width="55" height="55" fill="white" transform="translate(0.5)"/>
</clipPath>
</defs>
</svg>
