<svg width="32" height="32" viewBox="0 0 32 32" fill="none" xmlns="http://www.w3.org/2000/svg">
<g clip-path="url(#clip0_12_70)">
<path d="M6.66667 25.3333H8.552L20.9707 12.9147L19.0853 11.0293L6.66667 23.448V25.3333ZM28 28H4V22.3427L21.9133 4.42932C22.1634 4.17936 22.5024 4.03894 22.856 4.03894C23.2096 4.03894 23.5486 4.17936 23.7987 4.42932L27.5707 8.20132C27.8206 8.45136 27.9611 8.79044 27.9611 9.14399C27.9611 9.49754 27.8206 9.83662 27.5707 10.0867L12.324 25.3333H28V28ZM20.9707 9.14399L22.856 11.0293L24.7413 9.14399L22.856 7.25866L20.9707 9.14399Z" fill="#2D2D53"/>
</g>
<defs>
<clipPath id="clip0_12_70">
<rect width="32" height="32" fill="white"/>
</clipPath>
</defs>
</svg>
