<svg width="32" height="32" viewBox="0 0 32 32" fill="none" xmlns="http://www.w3.org/2000/svg">
<g clip-path="url(#clip0_28_264)">
<path d="M6.43729 28L6.41063 28.0267L6.38263 28H3.98929C3.63838 27.9996 3.30196 27.86 3.05395 27.6117C2.80594 27.3635 2.66663 27.0269 2.66663 26.676V5.324C2.66907 4.97384 2.80916 4.63869 3.05664 4.39096C3.30413 4.14322 3.63913 4.00279 3.98929 4H28.0106C28.7413 4 29.3333 4.59333 29.3333 5.324V26.676C29.3309 27.0262 29.1908 27.3613 28.9433 27.609C28.6958 27.8568 28.3608 27.9972 28.0106 28H6.43729ZM26.6666 20V6.66667H5.33329V25.3333L18.6666 12L26.6666 20ZM26.6666 23.7707L18.6666 15.7707L9.10396 25.3333H26.6666V23.7707ZM10.6666 14.6667C9.95938 14.6667 9.28111 14.3857 8.78101 13.8856C8.28091 13.3855 7.99996 12.7072 7.99996 12C7.99996 11.2928 8.28091 10.6145 8.78101 10.1144C9.28111 9.61428 9.95938 9.33333 10.6666 9.33333C11.3739 9.33333 12.0521 9.61428 12.5522 10.1144C13.0523 10.6145 13.3333 11.2928 13.3333 12C13.3333 12.7072 13.0523 13.3855 12.5522 13.8856C12.0521 14.3857 11.3739 14.6667 10.6666 14.6667Z" fill="#A4A4C1"/>
</g>
<defs>
<clipPath id="clip0_28_264">
<rect width="32" height="32" fill="white"/>
</clipPath>
</defs>
</svg>
