<svg width="32" height="32" viewBox="0 0 32 32" fill="none" xmlns="http://www.w3.org/2000/svg">
<g clip-path="url(#clip0_18_129)">
<path d="M10.6667 5.33333H28V8H10.6667V5.33333ZM6.66667 4V8H8V9.33333H4V8H5.33333V5.33333H4V4H6.66667ZM4 18.6667V15.3333H6.66667V14.6667H4V13.3333H8V16.6667H5.33333V17.3333H8V18.6667H4ZM6.66667 26H4V24.6667H6.66667V24H4V22.6667H8V28H4V26.6667H6.66667V26ZM10.6667 14.6667H28V17.3333H10.6667V14.6667ZM10.6667 24H28V26.6667H10.6667V24Z" fill="white"/>
</g>
<defs>
<clipPath id="clip0_18_129">
<rect width="32" height="32" fill="white"/>
</clipPath>
</defs>
</svg>
