<svg width="32" height="32" viewBox="0 0 32 32" fill="none" xmlns="http://www.w3.org/2000/svg">
<g clip-path="url(#clip0_11_105)">
<path d="M6.66665 2.66667H25.3333C25.6869 2.66667 26.0261 2.80715 26.2761 3.0572C26.5262 3.30724 26.6666 3.64638 26.6666 4.00001V28C26.6666 28.3536 26.5262 28.6928 26.2761 28.9428C26.0261 29.1929 25.6869 29.3333 25.3333 29.3333H6.66665C6.31302 29.3333 5.97389 29.1929 5.72384 28.9428C5.47379 28.6928 5.33331 28.3536 5.33331 28V4.00001C5.33331 3.64638 5.47379 3.30724 5.72384 3.0572C5.97389 2.80715 6.31302 2.66667 6.66665 2.66667ZM12 14.6667V10.6667L5.33331 16L12 21.3333V17.3333H20V14.6667H12Z" fill="white"/>
</g>
<defs>
<clipPath id="clip0_11_105">
<rect width="32" height="32" fill="white"/>
</clipPath>
</defs>
</svg>
