<svg width="32" height="32" viewBox="0 0 32 32" fill="none" xmlns="http://www.w3.org/2000/svg">
<g clip-path="url(#clip0_12_55)">
<path d="M6.66667 24H25.3333V14.708C25.3333 9.53066 21.1547 5.33332 16 5.33332C10.8453 5.33332 6.66667 9.53066 6.66667 14.708V24ZM16 2.66666C22.6267 2.66666 28 8.05732 28 14.708V26.6667H4V14.708C4 8.05732 9.37333 2.66666 16 2.66666ZM12.6667 28H19.3333C19.3333 28.884 18.9821 29.7319 18.357 30.357C17.7319 30.9821 16.8841 31.3333 16 31.3333C15.1159 31.3333 14.2681 30.9821 13.643 30.357C13.0179 29.7319 12.6667 28.884 12.6667 28Z" fill="#2D2D53"/>
</g>
<defs>
<clipPath id="clip0_12_55">
<rect width="32" height="32" fill="white"/>
</clipPath>
</defs>
</svg>
