<svg width="56" height="55" viewBox="0 0 56 55" fill="none" xmlns="http://www.w3.org/2000/svg">
<g clip-path="url(#clip0_33_293)">
<path d="M11.9584 38.798C9.42244 37.3318 7.2747 35.2793 5.69511 32.8123C4.11551 30.3454 3.15005 27.5359 2.87959 24.6191C2.60912 21.7023 3.04153 18.7631 4.14059 16.0478C5.23966 13.3325 6.97337 10.92 9.19653 9.01256C11.4197 7.10508 14.0676 5.7581 16.9184 5.08442C19.7692 4.41075 22.7399 4.43 25.5817 5.14056C28.4236 5.85113 31.0537 7.23232 33.252 9.16845C35.4502 11.1046 37.1526 13.5393 38.2163 16.2686C41.4139 15.6365 44.732 16.2677 47.4742 18.0298C50.2163 19.7918 52.1693 22.5476 52.9231 25.7187C53.6768 28.8898 53.1729 32.2296 51.5169 35.0371C49.8609 37.8445 47.1817 39.9013 44.0418 40.7757V35.8944C45.1009 35.3919 46.037 34.6632 46.7842 33.7598C47.5313 32.8564 48.0714 31.8001 48.3662 30.6655C48.6611 29.5308 48.7037 28.3453 48.4909 27.1924C48.2782 26.0395 47.8153 24.9473 47.1348 23.9926C46.4544 23.0379 45.5729 22.244 44.5525 21.6668C43.5321 21.0896 42.3976 20.743 41.2288 20.6516C40.06 20.5602 38.8854 20.7261 37.7876 21.1376C36.6899 21.5492 35.6957 22.1964 34.8751 23.0336V22.9167C34.8751 20.6231 34.3014 18.366 33.2062 16.3507C32.111 14.3355 30.5291 12.6263 28.6045 11.3786C26.6799 10.131 24.4738 9.38464 22.1871 9.2075C19.9003 9.03035 17.6056 9.42805 15.5118 10.3644C13.418 11.3007 11.5918 12.7459 10.1993 14.5684C8.80675 16.391 7.89227 18.5329 7.53909 20.7991C7.1859 23.0653 7.40523 25.3839 8.17711 27.5438C8.94898 29.7036 10.2489 31.636 11.9584 33.1651V38.798ZM16.5418 36.6667H21.1251V45.8334H16.5418V36.6667ZM34.8751 36.6667H39.4584V45.8334H34.8751V36.6667ZM25.7084 43.5417H30.2918V52.7084H25.7084V43.5417Z" fill="#4747EB"/>
</g>
<defs>
<clipPath id="clip0_33_293">
<rect width="55" height="55" fill="white" transform="translate(0.5)"/>
</clipPath>
</defs>
</svg>
