<svg width="32" height="32" viewBox="0 0 32 32" fill="none" xmlns="http://www.w3.org/2000/svg">
<g clip-path="url(#clip0_11_79)">
<path d="M7.11202 6.06C8.481 4.8337 10.0889 3.90399 11.8347 3.32933C12.3339 3.9547 12.9676 4.4595 13.6887 4.80622C14.4099 5.15294 15.1999 5.33265 16 5.332C16.8002 5.33265 17.5902 5.15294 18.3113 4.80622C19.0325 4.4595 19.6662 3.9547 20.1654 3.32933C21.9111 3.90399 23.5191 4.8337 24.888 6.06C24.5967 6.80459 24.4768 7.60525 24.5373 8.40252C24.5978 9.19979 24.8371 9.9732 25.2374 10.6653C25.6368 11.3588 26.1875 11.9533 26.8484 12.4046C27.5093 12.8559 28.2634 13.1523 29.0547 13.272C29.4288 15.0705 29.4288 16.9268 29.0547 18.7253C27.508 18.9627 26.0814 19.872 25.2374 21.332C24.8368 22.0243 24.5975 22.7979 24.537 23.5955C24.4765 24.393 24.5965 25.1939 24.888 25.9387C23.5189 27.1645 21.911 28.0937 20.1654 28.668C19.6661 28.0429 19.0323 27.5383 18.3112 27.1918C17.59 26.8454 16.8001 26.6658 16 26.6667C15.1999 26.666 14.4099 26.8457 13.6887 27.1924C12.9676 27.5392 12.3339 28.044 11.8347 28.6693C10.089 28.0951 8.48112 27.1658 7.11202 25.94C7.40356 25.1952 7.52354 24.3943 7.46307 23.5968C7.40259 22.7993 7.1632 22.0256 6.76269 21.3333C6.36308 20.6401 5.81236 20.0459 5.15147 19.5948C4.49058 19.1438 3.73652 18.8475 2.94536 18.728C2.57111 16.929 2.57111 15.0723 2.94536 13.2733C3.73665 13.1537 4.49078 12.8572 5.15167 12.4059C5.81257 11.9546 6.36323 11.3601 6.76269 10.6667C7.163 9.97453 7.40227 9.20112 7.46275 8.40385C7.52322 7.60658 7.40335 6.80593 7.11202 6.06133V6.06ZM18 19.4627C18.4586 19.2019 18.8611 18.8531 19.1843 18.4362C19.5075 18.0192 19.745 17.5425 19.8833 17.0334C20.0215 16.5243 20.0576 15.9929 19.9896 15.4698C19.9216 14.9467 19.7508 14.4422 19.4871 13.9854C19.2233 13.5285 18.8718 13.1284 18.4527 12.8079C18.0337 12.4875 17.5554 12.2531 17.0454 12.1183C16.5354 11.9834 16.0038 11.9508 15.4811 12.0223C14.9585 12.0937 14.4551 12.2679 14 12.5347C13.0888 13.0689 12.4259 13.9418 12.1559 14.963C11.8859 15.9842 12.0308 17.0707 12.5589 17.9854C13.0871 18.9002 13.9556 19.5689 14.975 19.8457C15.9943 20.1224 17.0818 19.9847 18 19.4627Z" fill="white"/>
</g>
<defs>
<clipPath id="clip0_11_79">
<rect width="32" height="32" fill="white"/>
</clipPath>
</defs>
</svg>
