<svg width="61" height="60" viewBox="0 0 61 60" fill="none" xmlns="http://www.w3.org/2000/svg">
<g clip-path="url(#clip0_56_91)">
<path d="M30.5 45C26.5218 45 22.7064 43.4196 19.8934 40.6066C17.0804 37.7936 15.5 33.9782 15.5 30C15.5 26.0218 17.0804 22.2064 19.8934 19.3934C22.7064 16.5804 26.5218 15 30.5 15C34.4782 15 38.2936 16.5804 41.1066 19.3934C43.9196 22.2064 45.5 26.0218 45.5 30C45.5 33.9782 43.9196 37.7936 41.1066 40.6066C38.2936 43.4196 34.4782 45 30.5 45ZM30.5 40C33.1522 40 35.6957 38.9464 37.5711 37.0711C39.4464 35.1957 40.5 32.6522 40.5 30C40.5 27.3478 39.4464 24.8043 37.5711 22.9289C35.6957 21.0536 33.1522 20 30.5 20C27.8478 20 25.3043 21.0536 23.4289 22.9289C21.5536 24.8043 20.5 27.3478 20.5 30C20.5 32.6522 21.5536 35.1957 23.4289 37.0711C25.3043 38.9464 27.8478 40 30.5 40V40ZM28 2.5H33V10H28V2.5ZM28 50H33V57.5H28V50ZM9.2875 12.3225L12.8225 8.7875L18.125 14.09L14.59 17.625L9.2875 12.325V12.3225ZM42.875 45.91L46.41 42.375L51.7125 47.6775L48.1775 51.2125L42.875 45.91ZM48.1775 8.785L51.7125 12.3225L46.41 17.625L42.875 14.09L48.1775 8.7875V8.785ZM14.59 42.375L18.125 45.91L12.8225 51.2125L9.2875 47.6775L14.59 42.375V42.375ZM58 27.5V32.5H50.5V27.5H58ZM10.5 27.5V32.5H3V27.5H10.5Z" fill="#4747EB"/>
</g>
<defs>
<clipPath id="clip0_56_91">
<rect width="60" height="60" fill="white" transform="translate(0.5)"/>
</clipPath>
</defs>
</svg>
