<svg width="36" height="36" viewBox="0 0 36 36" fill="none" xmlns="http://www.w3.org/2000/svg">
<path d="M22.95 8.32499C21.81 8.3248 20.7154 8.77217 19.9019 9.57084C19.0883 10.3695 18.6209 11.4556 18.6 12.5955L18.558 14.958C18.5556 15.0848 18.5263 15.2097 18.4722 15.3245C18.4181 15.4392 18.3403 15.5412 18.244 15.6238C18.1477 15.7064 18.035 15.7677 17.9133 15.8036C17.7917 15.8396 17.6638 15.8494 17.538 15.8325L15.1965 15.5145C12.1155 15.0945 9.16353 13.6755 6.33153 11.316C5.43453 16.281 7.18653 19.7205 11.406 22.374L14.0265 24.021C14.151 24.0992 14.2545 24.2068 14.3278 24.3343C14.4011 24.4617 14.4421 24.6052 14.4471 24.7522C14.4522 24.8992 14.4211 25.0451 14.3567 25.1773C14.2922 25.3095 14.1964 25.4239 14.0775 25.5105L11.6895 27.255C13.11 27.3435 14.4585 27.2805 15.5775 27.0585C22.6545 25.6455 27.36 20.3205 27.36 11.5365C27.36 10.8195 25.842 8.32499 22.95 8.32499ZM15.6 12.54C15.6262 11.0941 16.0784 9.68799 16.8999 8.49782C17.7214 7.30765 18.8757 6.38627 20.2184 5.84904C21.5611 5.31181 23.0324 5.18261 24.4481 5.47761C25.8639 5.77261 27.1612 6.47871 28.1775 7.50749C29.244 7.49999 30.1515 7.76999 32.181 6.53999C31.6785 8.99999 31.431 10.068 30.36 11.5365C30.36 22.9995 23.3145 28.5735 16.1655 30C11.2635 30.978 4.13553 29.3715 2.09253 27.2385C3.13353 27.1575 7.36353 26.703 9.80853 24.9135C7.74003 23.55 -0.493471 18.705 4.91703 5.67899C7.45653 8.64449 10.032 10.6635 12.642 11.7345C14.379 12.447 14.805 12.432 15.6015 12.5415L15.6 12.54Z" fill="#4747EB"/>
</svg>
